<svg xmlns="http://www.w3.org/2000/svg" xml:space="preserve" width="1500" height="1500" data-id="lg_cG8qsvenJWsDTqMZA3" data-version="1"><path fill="#e03e0b" stroke="transparent" d="M0 0h1500v1500H0z"/><g data-padding="20"><g transform="translate(-569.073 -579.336)scale(1.71898)"><path fill="#fff" d="M869.056 657.662v83.74h-51.64q-1.26-7.98-5.56-14.87t-10.57-11.9q-6.26-5-13.92-7.74-7.67-2.74-15.81-2.74-9.86 0-15.97 3.75-6.1 3.76-6.1 10.49 0 6.42 5.48 10.41t14.4 6.89q8.92 2.89 20.34 5.55 11.43 2.66 23.24 6.57 11.82 3.92 23.25 9.47 11.42 5.56 20.34 14.25 8.92 8.68 14.4 21.2t5.48 30.05q0 18.63-7.98 31.77-7.98 13.15-21.44 21.6t-30.99 12.37q-17.53 3.91-36.31 3.91-18.32 0-34.98-4.23-16.67-4.22-34.04-13.77v13.77h-51.65v-85.29h51.65q4.53 18.31 18.15 28.87 13.62 10.57 30.68 10.57 11.42 0 17.06-4.31 5.63-4.3 5.63-9.78 0-8.61-9.31-13.3-9.31-4.7-23.09-8.38-13.77-3.67-30.13-8.29-16.35-4.62-30.12-13.3-13.78-8.69-23.09-22.93-9.31-14.25-9.31-37.25 0-17.06 7.35-30.21 7.36-13.15 19.73-22.15 12.36-8.99 28.56-13.61t34.2-4.62q24.88 0 42.72 5.79 17.85 5.79 27.71 12.21v-14.56Z" font-family="Ultra" font-size="320.533"/><rect width="709.893" height="71.822" x="110.062" y="450.016" fill="#e03e0b" rx="0" ry="0" transform="matrix(.79 0 0 .79 400 400.52)" vector-effect="non-scaling-stroke"/><path fill="#fff" d="M704.776 793.702h-1.38v-5.74h1.38v2.05q0 .77.2 1.28.19.51.49.81.3.31.65.43.35.13.65.13.43 0 .83-.18.39-.18.69-.56.31-.39.49-1.01.17-.62.17-1.52 0-.86-.23-1.49-.22-.63-.6-1.1-.38-.48-.87-.85-.48-.36-.98-.74-.51-.37-.99-.78-.49-.4-.87-.95-.38-.56-.6-1.3-.23-.74-.23-1.75 0-1.23.29-2.08t.75-1.38q.45-.54 1-.77.56-.24 1.08-.24.26 0 .55.07.28.06.56.19.27.12.51.32t.43.46v-.72h1.38v5.21h-1.38v-1.94q0-.64-.17-1.07-.17-.42-.42-.68-.25-.25-.53-.35-.27-.1-.49-.1-.39 0-.74.17-.35.18-.61.55-.26.38-.41.95t-.15 1.36q0 .78.23 1.36t.61 1.03q.37.45.86.83t.99.76.99.81q.49.44.86 1.01t.61 1.33q.23.75.23 1.78 0 1.46-.33 2.38-.33.93-.82 1.45-.49.53-1.08.72-.58.2-1.09.2-1.6 0-2.51-1.23Zm13.66-16v-1.42h4.69v1.42h-1.55v6.09h4.33v-6.09h-1.55v-1.42h4.7v1.42h-1.56v14.57h1.56v1.43h-4.7v-1.43h1.55v-7.01h-4.33v7.01h1.55v1.43h-4.69v-1.43h1.55v-14.57Zm24.7 14.57-.69-4.49h-2.56l-.62 4.49h1.37v1.43h-4.11v-1.43h1.21l2.33-14.57h-1.71v-1.42h3.71l2.63 15.99h1.16v1.43h-4.11v-1.43Zm-2.01-13.42-1.06 7.59h2.18Zm13.89 14.85h-1.38v-5.74h1.38v2.05q0 .77.2 1.28t.49.81q.3.31.65.43.35.13.65.13.44 0 .83-.18t.7-.56q.3-.39.48-1.01.17-.62.17-1.52 0-.86-.22-1.49-.23-.63-.61-1.1-.38-.48-.86-.85-.49-.36-.99-.74-.51-.37-.99-.78-.48-.4-.86-.95-.38-.56-.61-1.3t-.23-1.75q0-1.23.29-2.08t.75-1.38q.46-.54 1.01-.77.55-.24 1.07-.24.26 0 .55.07.28.06.56.19.27.12.51.32t.43.46v-.72h1.38v5.21h-1.38v-1.94q0-.64-.17-1.07-.17-.42-.42-.68-.24-.25-.52-.35t-.5-.1q-.39 0-.74.17-.35.18-.61.55-.26.38-.41.95t-.15 1.36q0 .78.23 1.36.24.58.61 1.03t.86.83.99.76.99.81q.49.44.86 1.01.38.57.61 1.33.24.75.24 1.78 0 1.46-.33 2.38-.33.93-.83 1.45-.49.53-1.08.72-.58.2-1.09.2-1.59 0-2.51-1.23Zm13.67-16v-1.42h4.69v1.42h-1.56v6.09h4.33v-6.09h-1.54v-1.42h4.69v1.42h-1.56v14.57h1.56v1.43h-4.69v-1.43h1.54v-7.01h-4.33v7.01h1.56v1.43h-4.69v-1.43h1.54v-14.57Zm24.69 14.57-.69-4.49h-2.56l-.62 4.49h1.37v1.43h-4.11v-1.43h1.21l2.33-14.57h-1.71v-1.42h3.71l2.63 15.99h1.16v1.43h-4.1v-1.43Zm-2-13.42-1.07 7.59h2.18Zm12.2-1.15v-1.42h3.03l4.34 12.93v-11.51h-1.59v-1.42h4.7v1.42h-1.56v16h-1.45l-4.34-12.88v11.45h1.56v1.43h-4.69v-1.43h1.55v-14.57Zm17.91 0v-1.42h4.69v1.42h-1.56v5.95l3.22-5.95h-.95v-1.42h3.87v1.42h-1.31l-3.27 6.06 3.59 8.51h1.43v1.43h-4.13v-1.43h1.06l-2.94-7.17-.57 1.04v6.13h1.56v1.43h-4.69v-1.43h1.55v-14.57Z" font-family="Stint Ultra Condensed" font-size="25.962"/></g><path fill="transparent" stroke="transparent" stroke-width="1.783" d="M250 537.879h1000V962.12H250z"/></g></svg>